<?xml version="1.0" encoding="utf-8"?>
<!-- Generator: Adobe Illustrator 23.0.1, SVG Export Plug-In . SVG Version: 6.00 Build 0)  -->
<svg version="1.1" id="图层_1" xmlns="http://www.w3.org/2000/svg" xmlns:xlink="http://www.w3.org/1999/xlink" x="0px" y="0px"
	 viewBox="0 0 32 32" style="enable-background:new 0 0 32 32;" xml:space="preserve">
<style type="text/css">
	.st0{fill:#FF2C2C;}
</style>
<path class="st0" d="M30.2,5.5H1.8c-0.5,0-0.9-0.4-0.9-0.9s0.4-0.9,0.9-0.9l0,0h28.3c0.5,0,0.9,0.4,0.9,0.9S30.7,5.5,30.2,5.5
	L30.2,5.5z M21,1.8H11c-0.5,0-0.9-0.4-0.9-0.9S10.5,0,11,0h10c0.5,0,1,0.4,1,0.9S21.6,1.8,21,1.8C21.1,1.8,21,1.8,21,1.8z M5.5,8.2
	c0.5,0,0.9,0.4,0.9,0.9l0,0v19.2c0,1,0.8,1.8,1.8,1.8h15.5c1,0,1.8-0.8,1.8-1.8V9.1c0-0.5,0.4-0.9,0.9-0.9s0.9,0.4,0.9,0.9
	c0,0,0,0,0,0.1v20.1c0,1.5-1.2,2.7-2.7,2.7l0,0H7.3c-1.5,0-2.7-1.2-2.7-2.7l0,0V9.1C4.6,8.6,5,8.2,5.5,8.2L5.5,8.2z"/>
<path class="st0" d="M22.8,17H11.9l4.5-4.5c0.3-0.3,0.3-0.8,0-1.1s-0.8-0.3-1.1,0L9,17.6c-0.1,0.1-0.2,0.4-0.2,0.6s0.1,0.4,0.2,0.6
	l6.3,6.3c0.2,0.2,0.4,0.2,0.6,0.2c0.2,0,0.4-0.1,0.6-0.2c0.3-0.3,0.3-0.8,0-1.1l-5.3-5.3h11.7c0.4,0,0.8-0.4,0.8-0.8
	C23.6,17.3,23.2,17,22.8,17z"/>
</svg>
