<?xml version="1.0" encoding="utf-8"?>
<!-- Generator: Adobe Illustrator 23.0.1, SVG Export Plug-In . SVG Version: 6.00 Build 0)  -->
<svg version="1.1" id="执行的报告" xmlns="http://www.w3.org/2000/svg" xmlns:xlink="http://www.w3.org/1999/xlink" x="0px"
	 y="0px" viewBox="0 0 44 48.7" style="enable-background:new 0 0 44 48.7;" xml:space="preserve">
<style type="text/css">
	.st0{fill:none;stroke:#000000;stroke-width:2.4;stroke-linecap:round;}
	.st1{stroke:#000000;}
</style>
<path id="圆角矩形_7" class="st0" d="M20.7,47.5H9.2c-4.4,0-8-3.6-8-8V9.2c0-4.4,3.6-8,8-8h25.6c4.4,0,8,3.6,8,8v12.5"/>
<g id="组_3">
	<path id="形状_1" class="st0" d="M9.3,11.2h20.4"/>
	<path id="形状_1_拷贝" class="st0" d="M9.3,18.3h20.4"/>
	<path id="形状_1_拷贝_2" class="st0" d="M9.3,26.4h10.4"/>
</g>
<g>
	<g>
		<path class="st1" d="M25.5,47.5c-0.3,0-0.6-0.3-0.6-0.6V30.6l0,0c0-0.2,0.1-1,0.6-1.5l0,0l0,0c0.6-0.4,1.8-1.1,3.5-1.1
			c0.7,0,2,0.4,2.2,0.4l0,0l0,0c0,0,3.9,1.5,5.8,1.5c1.1,0,2.7-0.5,4.3-1.3l0,0l0,0c0.5-0.2,0.9-0.1,1.1,0.1
			c0.5,0.3,0.6,0.8,0.6,0.9l0,0.1l0.1,8.4c0,0.1,0,0.4,0,0.7c-0.1,0.6-0.4,1.1-0.9,1.3c-0.8,0.4-2.6,1.1-4.9,1.1
			c-2.1,0-4.2-0.4-6.4-1.2c-0.8-0.3-1.6-0.5-2.3-0.5h0c-0.7,0-1.3,0.2-1.9,0.6c-0.3,0.2-0.5,0.3-0.6,0.5v6.4
			C26.1,47.2,25.8,47.5,25.5,47.5L25.5,47.5z M28.7,38.2c0.9,0,1.8,0.2,2.7,0.5c2.1,0.8,4.1,1.1,6,1.1c2.1,0,3.6-0.6,4.4-0.9
			c0.3-0.1,0.3-0.8,0.3-0.8l0,0v0L42,29.7c0,0,0,0,0-0.1c0,0,0,0,0,0c-1.8,0.9-3.6,1.4-4.8,1.4c-2.1,0-5.9-1.4-6.2-1.5
			c-0.5-0.1-1.4-0.4-1.8-0.4c-1.3,0-2.3,0.5-2.8,0.9c-0.1,0.1-0.2,0.4-0.2,0.7v8.3C26.7,38.5,27.6,38.2,28.7,38.2L28.7,38.2z
			 M28.7,38.2"/>
	</g>
</g>
</svg>
